<mxfile host="app.diagrams.net" agent="Mozilla/5.0 (Windows NT 10.0; Win64; x64) AppleWebKit/537.36 (KHTML, like Gecko) Chrome/131.0.0.0 Safari/537.36 Edg/131.0.0.0" version="25.0.1">
  <diagram id="C5RBs43oDa-KdzZeNtuy" name="Page-1">
    <mxGraphModel dx="1379" dy="795" grid="1" gridSize="10" guides="1" tooltips="1" connect="1" arrows="1" fold="1" page="1" pageScale="1" pageWidth="827" pageHeight="1169" math="0" shadow="0">
      <root>
        <mxCell id="WIyWlLk6GJQsqaUBKTNV-0" />
        <mxCell id="WIyWlLk6GJQsqaUBKTNV-1" parent="WIyWlLk6GJQsqaUBKTNV-0" />
        <mxCell id="nbBjfP9lLUrWsYlWHWuK-1" style="edgeStyle=orthogonalEdgeStyle;rounded=0;orthogonalLoop=1;jettySize=auto;html=1;exitX=0.5;exitY=1;exitDx=0;exitDy=0;" edge="1" parent="WIyWlLk6GJQsqaUBKTNV-1" source="nbBjfP9lLUrWsYlWHWuK-0" target="nbBjfP9lLUrWsYlWHWuK-2">
          <mxGeometry relative="1" as="geometry">
            <mxPoint x="390" y="180" as="targetPoint" />
          </mxGeometry>
        </mxCell>
        <mxCell id="nbBjfP9lLUrWsYlWHWuK-0" value="Start" style="ellipse;whiteSpace=wrap;html=1;" vertex="1" parent="WIyWlLk6GJQsqaUBKTNV-1">
          <mxGeometry x="330" y="50" width="120" height="80" as="geometry" />
        </mxCell>
        <mxCell id="nbBjfP9lLUrWsYlWHWuK-3" style="edgeStyle=orthogonalEdgeStyle;rounded=0;orthogonalLoop=1;jettySize=auto;html=1;" edge="1" parent="WIyWlLk6GJQsqaUBKTNV-1" source="nbBjfP9lLUrWsYlWHWuK-2" target="nbBjfP9lLUrWsYlWHWuK-4">
          <mxGeometry relative="1" as="geometry">
            <mxPoint x="390" y="270" as="targetPoint" />
          </mxGeometry>
        </mxCell>
        <mxCell id="nbBjfP9lLUrWsYlWHWuK-2" value="Opens the Web app" style="rounded=0;whiteSpace=wrap;html=1;" vertex="1" parent="WIyWlLk6GJQsqaUBKTNV-1">
          <mxGeometry x="330" y="150" width="120" height="60" as="geometry" />
        </mxCell>
        <mxCell id="nbBjfP9lLUrWsYlWHWuK-5" style="edgeStyle=orthogonalEdgeStyle;rounded=0;orthogonalLoop=1;jettySize=auto;html=1;" edge="1" parent="WIyWlLk6GJQsqaUBKTNV-1" source="nbBjfP9lLUrWsYlWHWuK-4" target="nbBjfP9lLUrWsYlWHWuK-6">
          <mxGeometry relative="1" as="geometry">
            <mxPoint x="550" y="270" as="targetPoint" />
          </mxGeometry>
        </mxCell>
        <mxCell id="nbBjfP9lLUrWsYlWHWuK-4" value="Homepage&lt;div&gt;&lt;br&gt;&lt;/div&gt;&lt;div&gt;Display logo, navlinks,cart&lt;/div&gt;" style="rounded=0;whiteSpace=wrap;html=1;" vertex="1" parent="WIyWlLk6GJQsqaUBKTNV-1">
          <mxGeometry x="320" y="240" width="140" height="80" as="geometry" />
        </mxCell>
        <mxCell id="nbBjfP9lLUrWsYlWHWuK-7" style="edgeStyle=orthogonalEdgeStyle;rounded=0;orthogonalLoop=1;jettySize=auto;html=1;exitX=1;exitY=0.5;exitDx=0;exitDy=0;" edge="1" parent="WIyWlLk6GJQsqaUBKTNV-1" source="nbBjfP9lLUrWsYlWHWuK-6">
          <mxGeometry relative="1" as="geometry">
            <mxPoint x="470" y="260" as="targetPoint" />
          </mxGeometry>
        </mxCell>
        <mxCell id="nbBjfP9lLUrWsYlWHWuK-8" style="edgeStyle=orthogonalEdgeStyle;rounded=0;orthogonalLoop=1;jettySize=auto;html=1;exitX=0.5;exitY=1;exitDx=0;exitDy=0;" edge="1" parent="WIyWlLk6GJQsqaUBKTNV-1" source="nbBjfP9lLUrWsYlWHWuK-6">
          <mxGeometry relative="1" as="geometry">
            <mxPoint x="585" y="390" as="targetPoint" />
          </mxGeometry>
        </mxCell>
        <mxCell id="nbBjfP9lLUrWsYlWHWuK-6" value="user clinks on navlinks?" style="rhombus;whiteSpace=wrap;html=1;" vertex="1" parent="WIyWlLk6GJQsqaUBKTNV-1">
          <mxGeometry x="510" y="215" width="150" height="130" as="geometry" />
        </mxCell>
        <mxCell id="nbBjfP9lLUrWsYlWHWuK-9" value="yes?" style="text;html=1;align=center;verticalAlign=middle;resizable=0;points=[];autosize=1;strokeColor=none;fillColor=none;" vertex="1" parent="WIyWlLk6GJQsqaUBKTNV-1">
          <mxGeometry x="530" y="345" width="50" height="30" as="geometry" />
        </mxCell>
        <mxCell id="nbBjfP9lLUrWsYlWHWuK-10" value="no" style="text;html=1;align=center;verticalAlign=middle;resizable=0;points=[];autosize=1;strokeColor=none;fillColor=none;" vertex="1" parent="WIyWlLk6GJQsqaUBKTNV-1">
          <mxGeometry x="660" y="240" width="40" height="30" as="geometry" />
        </mxCell>
        <mxCell id="nbBjfP9lLUrWsYlWHWuK-12" style="edgeStyle=orthogonalEdgeStyle;rounded=0;orthogonalLoop=1;jettySize=auto;html=1;entryX=0.882;entryY=0.36;entryDx=0;entryDy=0;entryPerimeter=0;" edge="1" parent="WIyWlLk6GJQsqaUBKTNV-1" source="nbBjfP9lLUrWsYlWHWuK-11" target="nbBjfP9lLUrWsYlWHWuK-13">
          <mxGeometry relative="1" as="geometry">
            <mxPoint x="470" y="420" as="targetPoint" />
            <Array as="points">
              <mxPoint x="520" y="416" />
              <mxPoint x="520" y="416" />
            </Array>
          </mxGeometry>
        </mxCell>
        <mxCell id="nbBjfP9lLUrWsYlWHWuK-11" value="redirects to corresponding home page" style="rounded=0;whiteSpace=wrap;html=1;" vertex="1" parent="WIyWlLk6GJQsqaUBKTNV-1">
          <mxGeometry x="525" y="390" width="120" height="60" as="geometry" />
        </mxCell>
        <mxCell id="nbBjfP9lLUrWsYlWHWuK-14" style="edgeStyle=orthogonalEdgeStyle;rounded=0;orthogonalLoop=1;jettySize=auto;html=1;entryX=0.5;entryY=1;entryDx=0;entryDy=0;" edge="1" parent="WIyWlLk6GJQsqaUBKTNV-1" source="nbBjfP9lLUrWsYlWHWuK-13" target="nbBjfP9lLUrWsYlWHWuK-11">
          <mxGeometry relative="1" as="geometry">
            <mxPoint x="250" y="430" as="targetPoint" />
          </mxGeometry>
        </mxCell>
        <mxCell id="nbBjfP9lLUrWsYlWHWuK-15" style="edgeStyle=orthogonalEdgeStyle;rounded=0;orthogonalLoop=1;jettySize=auto;html=1;exitX=0.5;exitY=1;exitDx=0;exitDy=0;" edge="1" parent="WIyWlLk6GJQsqaUBKTNV-1" source="nbBjfP9lLUrWsYlWHWuK-13" target="nbBjfP9lLUrWsYlWHWuK-20">
          <mxGeometry relative="1" as="geometry">
            <mxPoint x="405" y="530" as="targetPoint" />
          </mxGeometry>
        </mxCell>
        <mxCell id="nbBjfP9lLUrWsYlWHWuK-13" value="is the page collection" style="rhombus;whiteSpace=wrap;html=1;" vertex="1" parent="WIyWlLk6GJQsqaUBKTNV-1">
          <mxGeometry x="350" y="380" width="110" height="100" as="geometry" />
        </mxCell>
        <mxCell id="nbBjfP9lLUrWsYlWHWuK-16" value="no" style="text;html=1;align=center;verticalAlign=middle;resizable=0;points=[];autosize=1;strokeColor=none;fillColor=none;" vertex="1" parent="WIyWlLk6GJQsqaUBKTNV-1">
          <mxGeometry x="455.94" y="430" width="40" height="30" as="geometry" />
        </mxCell>
        <mxCell id="nbBjfP9lLUrWsYlWHWuK-18" value="yes" style="text;html=1;align=center;verticalAlign=middle;resizable=0;points=[];autosize=1;strokeColor=none;fillColor=none;" vertex="1" parent="WIyWlLk6GJQsqaUBKTNV-1">
          <mxGeometry x="360" y="498" width="40" height="30" as="geometry" />
        </mxCell>
        <mxCell id="nbBjfP9lLUrWsYlWHWuK-22" style="edgeStyle=orthogonalEdgeStyle;rounded=0;orthogonalLoop=1;jettySize=auto;html=1;exitX=0.5;exitY=1;exitDx=0;exitDy=0;" edge="1" parent="WIyWlLk6GJQsqaUBKTNV-1" source="nbBjfP9lLUrWsYlWHWuK-20" target="nbBjfP9lLUrWsYlWHWuK-24">
          <mxGeometry relative="1" as="geometry">
            <mxPoint x="429.06" y="740" as="targetPoint" />
          </mxGeometry>
        </mxCell>
        <mxCell id="nbBjfP9lLUrWsYlWHWuK-20" value="user searches&amp;nbsp; or filters for product ?" style="rhombus;whiteSpace=wrap;html=1;" vertex="1" parent="WIyWlLk6GJQsqaUBKTNV-1">
          <mxGeometry x="314.06" y="550" width="181.88" height="130" as="geometry" />
        </mxCell>
        <mxCell id="nbBjfP9lLUrWsYlWHWuK-23" value="yes" style="text;html=1;align=center;verticalAlign=middle;resizable=0;points=[];autosize=1;strokeColor=none;fillColor=none;" vertex="1" parent="WIyWlLk6GJQsqaUBKTNV-1">
          <mxGeometry x="434.06" y="698" width="40" height="30" as="geometry" />
        </mxCell>
        <mxCell id="nbBjfP9lLUrWsYlWHWuK-27" style="edgeStyle=orthogonalEdgeStyle;rounded=0;orthogonalLoop=1;jettySize=auto;html=1;" edge="1" parent="WIyWlLk6GJQsqaUBKTNV-1" source="nbBjfP9lLUrWsYlWHWuK-24">
          <mxGeometry relative="1" as="geometry">
            <mxPoint x="550" y="760" as="targetPoint" />
          </mxGeometry>
        </mxCell>
        <mxCell id="nbBjfP9lLUrWsYlWHWuK-24" value="filter prodcut based on search or products" style="rounded=0;whiteSpace=wrap;html=1;" vertex="1" parent="WIyWlLk6GJQsqaUBKTNV-1">
          <mxGeometry x="344.06" y="730" width="120" height="60" as="geometry" />
        </mxCell>
        <mxCell id="nbBjfP9lLUrWsYlWHWuK-29" style="edgeStyle=orthogonalEdgeStyle;rounded=0;orthogonalLoop=1;jettySize=auto;html=1;" edge="1" parent="WIyWlLk6GJQsqaUBKTNV-1" source="nbBjfP9lLUrWsYlWHWuK-28" target="nbBjfP9lLUrWsYlWHWuK-30">
          <mxGeometry relative="1" as="geometry">
            <mxPoint x="610" y="890" as="targetPoint" />
          </mxGeometry>
        </mxCell>
        <mxCell id="nbBjfP9lLUrWsYlWHWuK-28" value="product selection" style="rounded=0;whiteSpace=wrap;html=1;" vertex="1" parent="WIyWlLk6GJQsqaUBKTNV-1">
          <mxGeometry x="550" y="728" width="120" height="60" as="geometry" />
        </mxCell>
        <mxCell id="nbBjfP9lLUrWsYlWHWuK-31" style="edgeStyle=orthogonalEdgeStyle;rounded=0;orthogonalLoop=1;jettySize=auto;html=1;" edge="1" parent="WIyWlLk6GJQsqaUBKTNV-1" source="nbBjfP9lLUrWsYlWHWuK-30" target="nbBjfP9lLUrWsYlWHWuK-32">
          <mxGeometry relative="1" as="geometry">
            <mxPoint x="470" y="890" as="targetPoint" />
          </mxGeometry>
        </mxCell>
        <mxCell id="nbBjfP9lLUrWsYlWHWuK-30" value="redirect to product details page&lt;div&gt;&lt;br&gt;&lt;/div&gt;" style="rounded=0;whiteSpace=wrap;html=1;" vertex="1" parent="WIyWlLk6GJQsqaUBKTNV-1">
          <mxGeometry x="550" y="860" width="120" height="60" as="geometry" />
        </mxCell>
        <mxCell id="nbBjfP9lLUrWsYlWHWuK-33" style="edgeStyle=orthogonalEdgeStyle;rounded=0;orthogonalLoop=1;jettySize=auto;html=1;" edge="1" parent="WIyWlLk6GJQsqaUBKTNV-1" source="nbBjfP9lLUrWsYlWHWuK-32" target="nbBjfP9lLUrWsYlWHWuK-35">
          <mxGeometry relative="1" as="geometry">
            <mxPoint x="290" y="890" as="targetPoint" />
          </mxGeometry>
        </mxCell>
        <mxCell id="nbBjfP9lLUrWsYlWHWuK-32" value="add product and user select size&amp;nbsp;" style="rounded=0;whiteSpace=wrap;html=1;" vertex="1" parent="WIyWlLk6GJQsqaUBKTNV-1">
          <mxGeometry x="354" y="860" width="120" height="60" as="geometry" />
        </mxCell>
        <mxCell id="nbBjfP9lLUrWsYlWHWuK-38" style="edgeStyle=orthogonalEdgeStyle;rounded=0;orthogonalLoop=1;jettySize=auto;html=1;" edge="1" parent="WIyWlLk6GJQsqaUBKTNV-1" source="nbBjfP9lLUrWsYlWHWuK-35" target="nbBjfP9lLUrWsYlWHWuK-39">
          <mxGeometry relative="1" as="geometry">
            <mxPoint x="220" y="970" as="targetPoint" />
          </mxGeometry>
        </mxCell>
        <mxCell id="nbBjfP9lLUrWsYlWHWuK-35" value="pay for product" style="rounded=0;whiteSpace=wrap;html=1;" vertex="1" parent="WIyWlLk6GJQsqaUBKTNV-1">
          <mxGeometry x="160" y="860" width="120" height="60" as="geometry" />
        </mxCell>
        <mxCell id="nbBjfP9lLUrWsYlWHWuK-39" value="end" style="ellipse;whiteSpace=wrap;html=1;" vertex="1" parent="WIyWlLk6GJQsqaUBKTNV-1">
          <mxGeometry x="160" y="960" width="120" height="80" as="geometry" />
        </mxCell>
      </root>
    </mxGraphModel>
  </diagram>
</mxfile>
